<svg width="22" height="22" viewBox="0 0 22 22" fill="none" xmlns="http://www.w3.org/2000/svg">
<g clip-path="url(#clip0_15_41543)">
<path d="M18.4766 14.9875V10.8367H13.4922V17.4796H11V7.9234H7.26172V4.19371H6.42813V1.90778H4.76953V4.19371H3.93594V7.93199H2.68984V14.1625H1.03125V22.0515H20.9688V14.9875H18.4766ZM6.12734 7.69996H5.11328V6.69449H6.12734V7.69996ZM10.175 9.93434H9.16094V8.92028H10.175V9.93434ZM16.5086 14.6953H15.4945V13.6812H16.5086V14.6953ZM16.5086 13.0625H15.4945V12.0484H16.5086V13.0625ZM17.9008 16.3882H16.8867V15.3742H17.9008V16.3882ZM17.9008 13.0625H16.8867V12.0484H17.9008V13.0625Z" fill="black"/>
<path d="M16.2422 4.70936C17.5331 4.70936 18.5797 3.66283 18.5797 2.37186C18.5797 1.0809 17.5331 0.0343628 16.2422 0.0343628C14.9512 0.0343628 13.9047 1.0809 13.9047 2.37186C13.9047 3.66283 14.9512 4.70936 16.2422 4.70936Z" fill="black"/>
</g>
<defs>
<clipPath id="clip0_15_41543">
<rect width="22" height="22" fill="white"/>
</clipPath>
</defs>
</svg>
