<svg width="34" height="34" viewBox="0 0 34 34" fill="none" xmlns="http://www.w3.org/2000/svg">
<path opacity="0.35" d="M17.68 32.64C9.43089 32.64 2.71997 25.9291 2.71997 17.68C2.71997 9.43092 9.43089 2.72 17.68 2.72C21.4261 2.72 25.0111 4.1123 27.7742 6.63986C28.204 7.03256 28.4655 7.59288 28.4903 8.17598C28.5151 8.75806 28.3033 9.3381 27.9089 9.76718L25.0093 12.9186L30.1736 12.9176C31.2205 12.9176 32.1313 13.6619 32.3398 14.6873C32.539 15.6675 32.64 16.6746 32.64 17.68C32.64 25.9291 25.9291 32.64 17.68 32.64Z" fill="black"/>
<path d="M17 31.96C8.75096 31.96 2.04004 25.2491 2.04004 17C2.04004 8.75092 8.75096 2.04 17 2.04C20.7462 2.04 24.3311 3.4323 27.0943 5.95986C27.5241 6.35256 27.7855 6.91288 27.8103 7.49598C27.8352 8.07806 27.6233 8.6581 27.2289 9.08718L24.3294 12.2386L29.4937 12.2376C30.5405 12.2376 31.4514 12.9819 31.6598 14.0073C31.8591 14.9875 31.96 15.9946 31.96 17C31.96 25.2491 25.2491 31.96 17 31.96Z" fill="white"/>
<path d="M29.477 14.534H28.4495V14.4809H16.9677V19.584H24.1774C23.1254 22.5546 20.299 24.6871 16.9673 24.6871C12.7401 24.6871 9.31293 21.2599 9.31293 17.0326C9.31293 12.8054 12.7401 9.37822 16.9673 9.37822C18.9186 9.37822 20.6937 10.1143 22.0456 11.3169L25.6543 7.7078C23.3757 5.58416 20.3279 4.27482 16.9677 4.27482C9.92221 4.27482 4.21021 9.98716 4.21021 17.0323C4.21021 24.0774 9.92254 29.7898 16.9677 29.7898C24.0128 29.7898 29.7252 24.0774 29.7252 17.0323C29.7252 16.1772 29.6371 15.3422 29.477 14.534Z" fill="#F9B84F"/>
<path d="M5.68066 11.0945L9.87218 14.1685C11.0064 11.3604 13.7529 9.37788 16.9673 9.37788C18.9186 9.37788 20.6937 10.114 22.0455 11.3166L25.6543 7.7078C23.3756 5.58416 20.3279 4.27482 16.9676 4.27482C12.0672 4.27482 7.81756 7.0414 5.68066 11.0945Z" fill="#F4665C"/>
<path d="M16.9673 29.7901C20.2626 29.7901 23.257 28.5291 25.5207 26.4782L21.5723 23.137C20.2915 24.1074 18.6993 24.6871 16.9673 24.6871C13.6489 24.6871 10.8317 22.5712 9.77023 19.6183L5.60999 22.8239C7.72139 26.9552 12.0091 29.7901 16.9673 29.7901Z" fill="#96C362"/>
<path d="M29.4769 14.534H28.4495V14.4809H16.9677V19.584H24.1774C23.6721 21.011 22.7541 22.2414 21.5702 23.1377C21.5709 23.137 21.5716 23.137 21.5723 23.1363L25.5207 26.4775C25.2412 26.7315 29.7251 23.411 29.7251 17.0323C29.7251 16.1772 29.6371 15.3422 29.4769 14.534Z" fill="#2785BD"/>
</svg>
