<svg width="105" height="104" viewBox="0 0 105 104" fill="none" xmlns="http://www.w3.org/2000/svg">
<g clip-path="url(#clip0_18_6)">
<path d="M67.5082 87.6064V48.7279C67.5082 44.1799 63.8215 40.4934 59.2737 40.4934H45.0117C40.4638 40.4934 36.7773 44.1801 36.7773 48.7279V87.6064H67.5082V87.6064Z" fill="#BF9000" fill-opacity="0.5"/>
<path d="M67.3654 90.3355H36.6346C35.1693 90.3355 33.9816 89.1474 33.9816 87.6824V48.8039C33.9816 42.8003 38.8655 37.9162 44.8693 37.9162H59.1313C65.1347 37.9162 70.0186 42.8001 70.0186 48.8039V87.6824C70.0186 89.1474 68.8305 90.3355 67.3654 90.3355ZM39.2876 85.0294H64.7124V48.8039C64.7124 45.7262 62.2085 43.2224 59.1311 43.2224H44.8691C41.7915 43.2224 39.2876 45.7264 39.2876 48.8039V85.0294V85.0294Z" fill="#BF9100"/>
<path d="M11.0663 90.1916C9.60091 90.1916 8.41324 89.0035 8.41324 87.5386V64.7222C8.41324 58.7186 13.2972 53.8345 19.3009 53.8345H36.491C37.9563 53.8345 39.144 55.0225 39.144 56.4875V87.4169C39.144 88.8819 37.9561 90.0699 36.491 90.0699C35.0257 90.0699 33.838 88.8819 33.838 87.4169V59.1407H19.3007C16.2232 59.1407 13.7193 61.6446 13.7193 64.7222V87.5386C13.7193 89.0035 12.5314 90.1916 11.0663 90.1916Z" fill="#BF9100"/>
<path d="M67.5092 89.838C66.0443 89.838 64.8562 88.6499 64.8562 87.185V63.917C64.8562 62.4521 66.0443 61.264 67.5092 61.264H84.6993C90.7026 61.264 95.5866 66.1479 95.5866 72.1517V75.4789C95.5866 76.9438 94.3985 78.1319 92.9336 78.1319C91.4686 78.1319 90.2805 76.9438 90.2805 75.4789V72.1517C90.2805 69.0739 87.7766 66.5702 84.6993 66.5702H70.1624V87.185C70.1624 88.6499 68.9744 89.838 67.5092 89.838Z" fill="#BF9100"/>
<path d="M52 63.4299C50.5347 63.4299 49.347 62.2418 49.347 60.7769V52.1987C49.347 50.7338 50.5349 49.5457 52 49.5457C53.4649 49.5457 54.653 50.7338 54.653 52.1987V60.7769C54.653 62.2418 53.4649 63.4299 52 63.4299Z" fill="#BF9100"/>
<path d="M44.2032 33.3036C43.6532 33.3036 43.1058 33.1326 42.6434 32.7968C41.8265 32.2033 41.4172 31.1976 41.588 30.2021L42.8413 22.8945L37.532 17.7195C36.8089 17.0146 36.5485 15.9602 36.8605 14.9998C37.1725 14.0395 38.0029 13.3393 39.0022 13.1938L46.3393 12.1278L49.6206 5.47875C50.0677 4.57322 50.9899 4 51.9996 4C53.0095 4 53.9317 4.57342 54.3788 5.47875L57.6599 12.1278L64.9969 13.1938C65.9965 13.3393 66.8265 14.0395 67.1387 14.9998C67.4507 15.9602 67.1905 17.0146 66.4676 17.7195L61.1583 22.8945L62.3819 30.0297C62.4298 30.2289 62.4548 30.4369 62.4548 30.6508C62.4548 32.1155 61.2682 33.3028 59.8039 33.3038C59.3795 33.3184 58.9526 33.2043 58.5619 32.9993L52 29.5487L45.4374 32.9989C45.0493 33.2029 44.6255 33.3036 44.2032 33.3036ZM52 23.8983C52.4241 23.8983 52.8482 23.9999 53.2344 24.2028L56.2735 25.8004L55.693 22.4163C55.5455 21.5557 55.8309 20.6776 56.4559 20.0678L58.9146 17.6715L55.5171 17.1781C54.6528 17.0524 53.9059 16.5097 53.5194 15.7266L52 12.6482L50.4804 15.7272C50.0939 16.5101 49.347 17.053 48.4829 17.1787L45.0854 17.6721L47.544 20.0684C48.1695 20.678 48.4549 21.5559 48.307 22.4169L47.7264 25.801L50.7656 24.2034C51.1517 23.9999 51.5757 23.8983 52 23.8983Z" fill="#BF9100"/>
<path d="M55.3495 53.3254H48.6505C47.1851 53.3254 45.9975 52.1374 45.9975 50.6724C45.9975 49.2075 47.1853 48.0194 48.6505 48.0194H55.3495C56.8145 48.0194 58.0025 49.2075 58.0025 50.6724C58.0025 52.1374 56.8145 53.3254 55.3495 53.3254Z" fill="#BF9100"/>
<path d="M55.3495 64.6013H48.6505C47.1851 64.6013 45.9975 63.4132 45.9975 61.9483C45.9975 60.4834 47.1853 59.2953 48.6505 59.2953H55.3495C56.8145 59.2953 58.0025 60.4834 58.0025 61.9483C58.0025 63.4132 56.8145 64.6013 55.3495 64.6013Z" fill="#BF9100"/>
<path d="M96.5715 100.152H7.42848C3.33247 100.152 0 96.8196 0 92.7234C0 88.6274 3.33247 85.2949 7.42848 85.2949H96.5713C100.667 85.2949 104 88.6274 104 92.7234C104 96.8196 100.668 100.152 96.5715 100.152ZM7.42848 90.6009C6.25828 90.6009 5.30603 91.5532 5.30603 92.7234C5.30603 93.8936 6.25828 94.8458 7.42848 94.8458H96.5713C97.7415 94.8458 98.6938 93.8936 98.6938 92.7234C98.6938 91.5532 97.7415 90.6009 96.5713 90.6009H7.42848Z" fill="#BF9100"/>
</g>
<defs>
<clipPath id="clip0_18_6">
<rect width="104" height="104" fill="white" transform="translate(0.142853)"/>
</clipPath>
</defs>
</svg>
